<?xml version="1.0" encoding="utf-8"?>
<!-- Generator: Adobe Illustrator 22.0.1, SVG Export Plug-In . SVG Version: 6.00 Build 0)  -->
<svg version="1.1" id="Layer_1" xmlns="http://www.w3.org/2000/svg" xmlns:xlink="http://www.w3.org/1999/xlink" x="0px" y="0px"
	 viewBox="0 0 217.4 427.1" style="enable-background:new 0 0 217.4 427.1;" xml:space="preserve">
<style type="text/css">
	.st0{fill:none;}
	.st1{fill:#FFA211;}
</style>
<path class="st0" d="M174,247"/>
<path class="st1" d="M217.4,422.7c-15.4,0.4-30.9-5.2-42.5-16.8L23.6,254.6c-22.5-22.5-22.5-59.3,0-81.7L174.9,21.6
	c11.2-11.2,28.1-16.9,42.9-16.9c1.6,0-0.1,23.4-0.3,59.2c-0.1,34.9,1.4,81.5,1.5,129.5c0.1,24.9-1.1,50.2-1.2,74.5
	c-0.1,22.3,0.8,43.6,0.9,63C219,384.4,219.7,422.6,217.4,422.7z"/>
<path class="st1" d="M326,458"/>
</svg>
